<svg width="32" height="30" viewBox="0 0 32 30" fill="none" xmlns="http://www.w3.org/2000/svg">
<path d="M29.6 1.88421C28.8399 1.25002 27.9481 0.793069 26.9894 0.546526C26.0307 0.299984 25.0291 0.270042 24.0573 0.458874L21.7053 1.03487C20.4779 1.2598 19.3682 1.90799 18.5694 2.86664C17.7706 3.82528 17.3332 5.03369 17.3333 6.28154V26.9042C16.4491 27.0335 15.5508 27.0335 14.6667 26.9042V6.28154C14.6711 5.0452 14.2438 3.84609 13.4585 2.89115C12.6732 1.93621 11.5793 1.28534 10.3653 1.05087L7.86667 0.442874C6.90554 0.266999 5.91751 0.304541 4.9725 0.552842C4.0275 0.801142 3.14862 1.25413 2.39809 1.87975C1.64756 2.50536 1.04371 3.2883 0.629309 4.17315C0.214904 5.058 6.50833e-05 6.02312 0 7.00021L0 21.3909C7.66078e-05 22.9519 0.547969 24.4635 1.54818 25.662C2.54839 26.8606 3.93748 27.6701 5.47333 27.9495L13.8547 29.4735C15.2733 29.7313 16.7267 29.7313 18.1453 29.4735L26.5333 27.9495C28.068 27.6687 29.4555 26.8586 30.4544 25.6602C31.4533 24.4618 32.0002 22.951 32 21.3909V7.00021C32.0006 6.02347 31.7858 5.05861 31.371 4.17433C30.9562 3.29006 30.3515 2.50812 29.6 1.88421Z" fill="#4178D4"/>
</svg>
