<svg width="28" height="28" viewBox="0 0 28 28" fill="none" xmlns="http://www.w3.org/2000/svg">
<path d="M11.537 5.40778C11.6049 5.546 11.6497 5.69402 11.6698 5.84619L12.0411 11.3661L12.2253 14.1405C12.2272 14.4258 12.272 14.7093 12.3582 14.9818C12.5808 15.5105 13.1162 15.8465 13.6987 15.8231L22.5751 15.2425C22.9594 15.2361 23.3306 15.3799 23.6069 15.6421C23.8372 15.8606 23.9859 16.1465 24.0327 16.454L24.0484 16.6407C23.6811 21.7269 19.9455 25.9693 14.8698 27.0644C9.79403 28.1595 4.58911 25.8461 2.08091 21.3803C1.35781 20.0828 0.90616 18.6567 0.752469 17.1857C0.688264 16.7502 0.659993 16.3104 0.667932 15.8705C0.660005 10.4174 4.54325 5.70302 9.97907 4.56649C10.6333 4.46463 11.2747 4.81097 11.537 5.40778Z" fill="#64748B"/>
<path opacity="0.4" d="M15.1599 0.668084C21.2398 0.822761 26.3497 5.19471 27.3333 11.0834L27.3239 11.1268L27.297 11.19L27.3008 11.3635C27.2868 11.5933 27.1981 11.8144 27.0452 11.993C26.8859 12.179 26.6683 12.3057 26.4287 12.3549L26.2826 12.3749L16.0415 13.0385C15.7009 13.0721 15.3617 12.9622 15.1084 12.7363C14.8973 12.548 14.7623 12.2938 14.7242 12.0199L14.0368 1.79374C14.0248 1.75916 14.0248 1.72168 14.0368 1.6871C14.0462 1.40522 14.1703 1.13878 14.3813 0.947299C14.5924 0.755819 14.8728 0.655258 15.1599 0.668084Z" fill="#64748B"/>
</svg>
