<svg width="32" height="26" viewBox="0 0 32 26" fill="none" xmlns="http://www.w3.org/2000/svg">
<path d="M25.3333 0H6.66667C4.89921 0.00211714 3.20474 0.705176 1.95496 1.95496C0.705176 3.20474 0.00211714 4.89921 0 6.66667L0 14.6667C0.00211714 16.4341 0.705176 18.1286 1.95496 19.3784C3.20474 20.6282 4.89921 21.3312 6.66667 21.3333H14.6667V22.6667H10.6667C10.313 22.6667 9.97391 22.8071 9.72386 23.0572C9.47381 23.3072 9.33333 23.6464 9.33333 24C9.33333 24.3536 9.47381 24.6928 9.72386 24.9428C9.97391 25.1929 10.313 25.3333 10.6667 25.3333H21.3333C21.687 25.3333 22.0261 25.1929 22.2761 24.9428C22.5262 24.6928 22.6667 24.3536 22.6667 24C22.6667 23.6464 22.5262 23.3072 22.2761 23.0572C22.0261 22.8071 21.687 22.6667 21.3333 22.6667H17.3333V21.3333H25.3333C27.1008 21.3312 28.7953 20.6282 30.045 19.3784C31.2948 18.1286 31.9979 16.4341 32 14.6667V6.66667C31.9979 4.89921 31.2948 3.20474 30.045 1.95496C28.7953 0.705176 27.1008 0.00211714 25.3333 0Z" fill="#2A714F"/>
</svg>
